<svg xmlns="http://www.w3.org/2000/svg" width="28" height="30" viewBox="0 0 28 30" fill="none">
  <path fill-rule="evenodd" clip-rule="evenodd" d="M8.16475 2.28778C0.796092 5.71932 -2.09654 14.2249 1.61546 21.5508C6.77314 31.7322 21.5337 31.6542 26.7989 21.4187C27.4586 20.1353 27.9987 18.6601 27.9987 18.1394C27.9987 15.6681 23.2655 15.1247 18.3242 17.2043C16.3993 18.7185 14.7933 21.5395 14.7933 23.4059C14.7933 25.6426 13.7136 24.8019 13.3048 22.2475C12.847 19.3832 9.35513 15.8913 6.94796 15.8913C4.65838 15.8913 4.45841 14.7934 6.65995 14.3104C9.49725 13.6873 12.7936 10.5324 13.2715 7.98311C13.4941 6.79902 13.8953 5.82999 14.1644 5.82999C14.4336 5.82999 14.8348 6.79902 15.0574 7.98311C15.5353 10.5299 19.7959 13.739 22.6263 14.3609C25.3416 14.9571 27.9987 13.6112 27.9987 12.0447C27.9987 9.99601 25.6595 6.06643 23.2655 4.09316C18.9612 0.545288 13.3476 -0.125677 8.16475 2.28778Z" fill="white"/>
  <path fill-rule="evenodd" clip-rule="evenodd" d="M22.9332 14.4539C21.028 13.9444 18.8326 13.1127 17.5271 11.8072C16.0303 10.3104 15.1562 7.64372 14.6767 5.58584C14.592 5.22236 13.741 5.22236 13.6563 5.58585C13.1768 7.64372 12.3028 10.3104 10.806 11.8072C9.30914 13.304 6.6425 14.178 4.58462 14.6576C4.22114 14.7422 4.22114 15.5933 4.58462 15.6779C6.6425 16.1575 9.30914 17.0315 10.806 18.5283C12.3028 20.0251 13.1768 22.6918 13.6563 24.7497C13.741 25.1131 14.592 25.1131 14.6767 24.7497C15.1562 22.6918 16.0303 20.0251 17.5271 18.5283C18.843 17.2124 21.063 16.3779 22.9787 15.8695C21.242 15.8945 19.4502 16.3159 18.3219 17.2033C16.3971 18.7176 14.791 21.5385 14.791 23.4049C14.791 25.6416 13.7113 24.8009 13.3026 22.2466C12.8448 19.3822 9.35287 15.8903 6.9457 15.8903C4.65612 15.8903 4.45616 14.7924 6.6577 14.3094C9.49499 13.6863 12.7913 10.5314 13.2692 7.98214C13.4918 6.79804 13.893 5.82901 14.1622 5.82901C14.4313 5.82901 14.8325 6.79804 15.0551 7.98214C15.533 10.5289 18.8287 13.6856 21.6591 14.3076C22.0684 14.3974 22.4982 14.4443 22.9332 14.4539Z" fill="#06070B"/>
</svg>